<svg width="677" height="195" viewBox="0 0 677 195" fill="none" xmlns="http://www.w3.org/2000/svg">
<path d="M73.7 45.9C83.3 45.9 92.5 47.7 101.3 51.3C110.1 54.7 117.8 59.6 124.4 66C131 72.2 136.3 79.6 140.3 88.2C144.3 96.8 146.3 106.1 146.3 116.1V171.6C146.3 176.8 144.4 181.3 140.6 185.1C137 188.9 132.5 190.9 127.1 191.1C121.7 191.1 117 189.4 113 186C109.2 182.4 107.3 177.9 107.3 172.5V118.5C107.3 113.9 106.4 109.6 104.6 105.6C103 101.4 100.6 97.8 97.4 94.8C94.4 91.8 90.8 89.4 86.6 87.6C82.6 85.8 78.2 84.9 73.4 84.9C69 84.9 64.8 85.8 60.8 87.6C56.8 89.2 53.3 91.4 50.3 94.2C47.3 97 44.9 100.4 43.1 104.4C41.3 108.4 40.4 112.6 40.4 117V171.6C40.4 176.8 38.4 181.4 34.4 185.4C30.4 189.2 25.8 191.1 20.6 191.1C15.4 191.1 10.8 189.3 6.8 185.7C2.8 182.1 0.8 177.7 0.8 172.5V118.5C1 108.5 2.9 99.1 6.5 90.3C10.3 81.5 15.4 73.8 21.8 67.2C28.4 60.6 36.1 55.4 44.9 51.6C53.7 47.8 63.3 45.9 73.7 45.9ZM233.033 49.5C242.833 49.5 252.133 51.4 260.933 55.2C269.733 59 277.433 64.2 284.033 70.8C290.633 77.4 295.833 85.1 299.633 93.9C303.633 102.7 305.633 112.2 305.633 122.4C305.633 132.4 303.733 141.8 299.933 150.6C296.133 159.2 290.933 166.8 284.333 173.4C277.933 180 270.333 185.2 261.533 189C252.733 192.8 243.233 194.7 233.033 194.7C223.033 194.7 213.633 192.9 204.833 189.3C196.033 185.7 188.333 180.7 181.733 174.3C175.133 167.7 169.933 160 166.133 151.2C162.333 142.4 160.433 132.8 160.433 122.4C160.433 112.4 162.233 103.1 165.833 94.5C169.633 85.7 174.733 78.1 181.133 71.7C187.733 65.1 195.433 59.9 204.233 56.1C213.233 52.1 222.833 49.9 233.033 49.5ZM233.033 88.8C228.433 88.8 224.133 89.7 220.133 91.5C216.133 93.1 212.533 95.4 209.333 98.4C206.333 101.4 203.933 105 202.133 109.2C200.333 113.2 199.433 117.6 199.433 122.4C199.433 127 200.333 131.4 202.133 135.6C203.933 139.6 206.333 143.2 209.333 146.4C212.533 149.4 216.133 151.8 220.133 153.6C224.133 155.4 228.433 156.3 233.033 156.3C237.633 156.3 241.933 155.4 245.933 153.6C250.133 151.8 253.733 149.4 256.733 146.4C259.733 143.2 262.133 139.6 263.933 135.6C265.733 131.4 266.633 127 266.633 122.4C266.233 113.2 262.933 105.4 256.733 99C250.533 92.6 242.633 89.2 233.033 88.8ZM441.043 0.899993C446.243 0.899993 450.743 2.79999 454.543 6.59999C458.543 10.2 460.543 14.9 460.543 20.7V119.4C460.543 129.2 458.543 138.5 454.543 147.3C450.743 156.1 445.443 163.8 438.643 170.4C432.043 177 424.343 182.3 415.543 186.3C406.743 190.1 397.543 192 387.943 192C378.343 192 369.143 190.1 360.343 186.3C351.543 182.5 343.743 177.3 336.943 170.7C330.343 164.1 325.043 156.4 321.043 147.6C317.043 138.8 315.043 129.4 315.043 119.4C315.043 109.6 316.943 100.3 320.743 91.5C324.743 82.7 330.043 75 336.643 68.4C343.443 61.8 351.243 56.6 360.043 52.8C368.843 48.8 378.143 46.8 387.943 46.8C399.943 46.8 411.043 49.5 421.243 54.9V20.4C421.243 17.8 421.743 15.3 422.743 12.9C423.943 10.5 425.443 8.39999 427.243 6.59999C429.043 4.79999 431.143 3.39999 433.543 2.39999C435.943 1.39999 438.443 0.899993 441.043 0.899993ZM387.943 85.8C383.343 85.8 378.943 86.7 374.743 88.5C370.743 90.3 367.143 92.8 363.943 96C360.943 99 358.543 102.6 356.743 106.8C354.943 110.8 354.043 115 354.043 119.4C354.043 124 354.943 128.4 356.743 132.6C358.543 136.6 360.943 140.1 363.943 143.1C367.143 146.1 370.743 148.5 374.743 150.3C378.943 152.1 383.343 153 387.943 153C392.343 153 396.543 152.1 400.543 150.3C404.543 148.5 408.043 146.1 411.043 143.1C414.243 139.9 416.743 136.3 418.543 132.3C420.343 128.3 421.243 124 421.243 119.4C421.243 114.6 420.343 110.2 418.543 106.2C416.743 102 414.243 98.4 411.043 95.4C408.043 92.4 404.543 90.1 400.543 88.5C396.543 86.7 392.343 85.8 387.943 85.8ZM497.281 1.8C502.481 1.8 506.881 3.8 510.481 7.79999C514.281 11.6 516.181 16.1 516.181 21.3C516.181 26.5 514.281 31.1 510.481 35.1C506.881 38.9 502.481 40.8 497.281 40.8C491.481 40.6 486.681 38.8 482.881 35.4C479.281 31.8 477.481 26.8 477.481 20.4C477.681 15.2 479.681 10.8 483.481 7.19998C487.481 3.59999 492.081 1.8 497.281 1.8ZM497.281 47.7C502.481 47.7 506.781 49.6 510.181 53.4C513.781 57.2 515.781 61.8 516.181 67.2V173.4C516.181 178.8 514.481 183.3 511.081 186.9C507.681 190.5 503.081 192.5 497.281 192.9C492.081 192.9 487.681 191.3 484.081 188.1C480.481 184.9 478.281 180.4 477.481 174.6V66C477.881 60.8 479.981 56.5 483.781 53.1C487.581 49.7 492.081 47.9 497.281 47.7ZM604.224 49.5C614.024 49.5 623.324 51.4 632.124 55.2C640.924 59 648.624 64.2 655.224 70.8C661.824 77.4 667.024 85.1 670.824 93.9C674.824 102.7 676.824 112.2 676.824 122.4C676.824 132.4 674.924 141.8 671.124 150.6C667.324 159.2 662.124 166.8 655.524 173.4C649.124 180 641.524 185.2 632.724 189C623.924 192.8 614.424 194.7 604.224 194.7C594.224 194.7 584.824 192.9 576.024 189.3C567.224 185.7 559.524 180.7 552.924 174.3C546.324 167.7 541.124 160 537.324 151.2C533.524 142.4 531.624 132.8 531.624 122.4C531.624 112.4 533.424 103.1 537.024 94.5C540.824 85.7 545.924 78.1 552.324 71.7C558.924 65.1 566.624 59.9 575.424 56.1C584.424 52.1 594.024 49.9 604.224 49.5ZM604.224 88.8C599.624 88.8 595.324 89.7 591.324 91.5C587.324 93.1 583.724 95.4 580.524 98.4C577.524 101.4 575.124 105 573.324 109.2C571.524 113.2 570.624 117.6 570.624 122.4C570.624 127 571.524 131.4 573.324 135.6C575.124 139.6 577.524 143.2 580.524 146.4C583.724 149.4 587.324 151.8 591.324 153.6C595.324 155.4 599.624 156.3 604.224 156.3C608.824 156.3 613.124 155.4 617.124 153.6C621.324 151.8 624.924 149.4 627.924 146.4C630.924 143.2 633.324 139.6 635.124 135.6C636.924 131.4 637.824 127 637.824 122.4C637.424 113.2 634.124 105.4 627.924 99C621.724 92.6 613.824 89.2 604.224 88.8Z" fill="white"/>
</svg>
